<?xml version="1.0" standalone="no"?><!DOCTYPE svg PUBLIC "-//W3C//DTD SVG 1.1//EN" "http://www.w3.org/Graphics/SVG/1.1/DTD/svg11.dtd"><svg t="1588238955416" class="icon" viewBox="0 0 1024 1024" version="1.1" xmlns="http://www.w3.org/2000/svg" p-id="3195" xmlns:xlink="http://www.w3.org/1999/xlink" width="200" height="200"><defs><style type="text/css"></style></defs><path d="M321.108 542.98L790.33 779.504c-16.112 12.407-26.67 31.674-27.3 53.43L285.626 592.287c16.445-12.233 29.002-29.398 35.482-49.307z m-35.524-111.298l477.49-240.931A71.186 71.186 0 0 0 763 194c0 20.747 9.026 39.386 23.365 52.204L321.092 480.97c-6.49-19.904-19.057-37.064-35.508-49.288z" fill="#ffffff" p-id="3196"></path><path d="M226 672c-88.366 0-160-71.634-160-160s71.634-160 160-160 160 71.634 160 160-71.634 160-160 160z m607 293c-71.797 0-130-58.203-130-130s58.203-130 130-130 130 58.203 130 130-58.203 130-130 130z m0-641c-71.797 0-130-58.203-130-130S761.203 64 833 64s130 58.203 130 130-58.203 130-130 130zM226 612c55.228 0 100-44.772 100-100s-44.772-100-100-100-100 44.772-100 100 44.772 100 100 100z m607 293c38.66 0 70-31.34 70-70s-31.34-70-70-70-70 31.34-70 70 31.34 70 70 70z m0-641c38.66 0 70-31.34 70-70s-31.34-70-70-70-70 31.34-70 70 31.34 70 70 70z" fill="#ffffff" p-id="3197"></path></svg>