<?xml version="1.0" standalone="no"?><!DOCTYPE svg PUBLIC "-//W3C//DTD SVG 1.1//EN" "http://www.w3.org/Graphics/SVG/1.1/DTD/svg11.dtd"><svg t="1589797677227" class="icon" viewBox="0 0 1024 1024" version="1.1" xmlns="http://www.w3.org/2000/svg" p-id="8916" xmlns:xlink="http://www.w3.org/1999/xlink" width="200" height="200"><defs><style type="text/css"></style></defs><path d="M639.5 688H392.9c-13.4 0-24.3 10.9-24.3 24.3s10.9 24.3 24.3 24.3h246.6c13.4 0 24.3-10.9 24.3-24.3S652.9 688 639.5 688z" fill="#ffffff" p-id="8917"></path><path d="M352.2 545.2l0.5 0.4 137 102.9c7.8 6.5 16.8 10 26.2 10 9.4 0 18.4-3.5 25.8-10l130-102.7 0.5-0.4c5.3-4.7 8.2-11.1 8.2-18.2 0-13.4-10.9-24.3-24.3-24.3-5.9 0-11.3 2.2-16.7 6.6L540 585.9V309.5c0-13.4-10.9-24.3-24.3-24.3s-24.3 10.9-24.3 24.3v276.8l-106.3-76.9c-5.5-4.2-10.7-6.3-16.1-6.5-6.4-0.2-12.5 2.1-17.2 6.6-4.8 4.6-7.5 11-7.5 17.7-0.1 6.9 2.9 13.5 7.9 18z" fill="#ffffff" p-id="8918"></path><path d="M932 437c-8.5-46.5-24.6-91-47.9-132.3-22.8-40.3-51.8-76.5-86.3-107.5-34.9-31.5-74.4-56.8-117.4-75.2-43.8-18.8-90.1-29.9-137.8-33.2-43.2-3-86.4 0.6-128.3 10.6-38.7 9.2-75.8 23.9-110.5 43.6-33.9 19.2-65 43-92.5 70.7-27.7 27.9-51.3 59.3-70.3 93.5a422.74 422.74 0 0 0-42.5 110.5c-9.7 42.2-12.9 85.6-9.5 129.1 3.2 40.3 12 79.8 26.3 117.4 14 36.8 33.1 71.5 56.7 103.2 23.3 31.2 50.7 59.1 81.5 82.9 31.1 24 65.3 43.6 101.6 58.2 37.5 15 76.9 24.6 117.2 28.5 13.5 1.3 27.3 1.9 40.9 1.9 10.8 0 21.6-0.4 32.3-1.2 47.6-3.6 93.9-15.1 137.6-34.2 42.9-18.8 82.3-44.4 117.1-76.3 34.3-31.4 63.1-68 85.6-108.6 23.2-41.9 38.9-87 46.9-134.1 8.5-49.1 8.2-98.7-0.7-147.5zM152.4 622c-24.9-82.7-20.6-172.1 12.2-251.7 28.5-69.3 78.9-130.2 141.9-171.7 73.7-48.5 162.4-69.8 249.9-59.8 79.1 9 154.9 43.9 213.5 98.3 58.3 54.2 98.6 126.7 113.6 204.3 13.7 71.3 6.3 147.4-21 214.2-25.2 61.8-66.7 116-119.9 156.8-54.3 41.6-118.5 67.6-186 75.3-17.5 2-35.4 2.8-53.2 2.3-77.6-2-154.4-28.9-216.3-75.6C223 766 175.2 697.7 152.4 622z" fill="#ffffff" p-id="8919"></path></svg>