<?xml version="1.0" standalone="no"?><!DOCTYPE svg PUBLIC "-//W3C//DTD SVG 1.1//EN" "http://www.w3.org/Graphics/SVG/1.1/DTD/svg11.dtd"><svg t="1589361516108" class="icon" viewBox="0 0 1024 1024" version="1.1" xmlns="http://www.w3.org/2000/svg" p-id="22623" xmlns:xlink="http://www.w3.org/1999/xlink" width="200" height="200"><defs><style type="text/css"></style></defs><path d="M820.48 725.333333c11.434667 0 15.573333 1.194667 19.754667 3.413334a23.253333 23.253333 0 0 1 9.685333 9.685333c2.218667 4.181333 3.413333 8.32 3.413333 19.712v19.712c0 11.392-1.194667 15.530667-3.413333 19.712a23.253333 23.253333 0 0 1-9.685333 9.685333c-4.181333 2.218667-8.32 3.413333-19.712 3.413334H203.477333c-11.392 0-15.530667-1.194667-19.712-3.413334a23.253333 23.253333 0 0 1-9.685333-9.685333c-2.218667-4.181333-3.413333-8.32-3.413333-19.712v-19.712c0-11.392 1.194667-15.530667 3.413333-19.712a23.253333 23.253333 0 0 1 9.685333-9.685333c4.181333-2.218667 8.32-3.413333 19.712-3.413334h617.045334z m0-256c11.434667 0 15.573333 1.194667 19.754667 3.413334a23.253333 23.253333 0 0 1 9.685333 9.685333c2.218667 4.181333 3.413333 8.32 3.413333 19.712v19.712c0 11.392-1.194667 15.530667-3.413333 19.712a23.253333 23.253333 0 0 1-9.685333 9.685333c-4.181333 2.218667-8.32 3.413333-19.712 3.413334H203.477333c-11.392 0-15.530667-1.194667-19.712-3.413334a23.253333 23.253333 0 0 1-9.685333-9.685333c-2.218667-4.181333-3.413333-8.32-3.413333-19.712v-19.712c0-11.392 1.194667-15.530667 3.413333-19.712a23.253333 23.253333 0 0 1 9.685333-9.685333c4.181333-2.218667 8.32-3.413333 19.712-3.413334h617.045334zM196.266667 153.6a25.6 25.6 0 0 1 15.36 5.12l102.4 76.8a25.6 25.6 0 0 1 0 40.96l-102.4 76.8A25.6 25.6 0 0 1 170.666667 332.8V179.2a25.6 25.6 0 0 1 25.6-25.6zM820.48 213.333333c11.434667 0 15.573333 1.194667 19.754667 3.413334a23.253333 23.253333 0 0 1 9.685333 9.685333c2.218667 4.181333 3.413333 8.32 3.413333 19.712v19.712c0 11.392-1.194667 15.530667-3.413333 19.712a23.253333 23.253333 0 0 1-9.685333 9.685333c-4.181333 2.218667-8.32 3.413333-19.712 3.413334h-361.045334c-11.392 0-15.530667-1.194667-19.712-3.413334a23.253333 23.253333 0 0 1-9.685333-9.685333c-2.218667-4.181333-3.413333-8.32-3.413333-19.712v-19.712c0-11.392 1.194667-15.530667 3.413333-19.712a23.253333 23.253333 0 0 1 9.685333-9.685333c4.181333-2.218667 8.32-3.413333 19.712-3.413334h361.045334z" fill="#ffffff" p-id="22624"></path></svg>