<?xml version="1.0" standalone="no"?><!DOCTYPE svg PUBLIC "-//W3C//DTD SVG 1.1//EN" "http://www.w3.org/Graphics/SVG/1.1/DTD/svg11.dtd"><svg t="1589361383783" class="icon" viewBox="0 0 1024 1024" version="1.1" xmlns="http://www.w3.org/2000/svg" p-id="20607" xmlns:xlink="http://www.w3.org/1999/xlink" width="200" height="200"><defs><style type="text/css"></style></defs><path d="M223.098 875.612c134.023-77.755 377.6-219.074 525.845-305.081l-0.583 299.821c-0.066 34.309 27.692 62.175 61.997 62.242 34.297 0.066 62.161-27.692 62.223-62.002l0.727-372.212c0.582-0.336 0.895-0.522 0.895-0.522s-0.311-0.182-0.893-0.523l0.726-372.058c0.066-34.309-27.687-62.161-61.982-62.223-34.304-0.069-62.171 27.673-62.238 61.982l-0.583 299.659c-133.401-78.098-344.179-201.494-482.342-282.378-53.793-32.677-137.937-71.914-138.207 65.724-0.347 176.687-0.914 469.007-1.213 622.287 1.795 78.23 59.193 63.321 95.636 45.281z" p-id="20608" fill="#ffffff"></path></svg>