<?xml version="1.0" standalone="no"?><!DOCTYPE svg PUBLIC "-//W3C//DTD SVG 1.1//EN" "http://www.w3.org/Graphics/SVG/1.1/DTD/svg11.dtd"><svg t="1589361410392" class="icon" viewBox="0 0 1024 1024" version="1.1" xmlns="http://www.w3.org/2000/svg" p-id="21415" xmlns:xlink="http://www.w3.org/1999/xlink" width="200" height="200"><defs><style type="text/css"></style></defs><path d="M788.764 118.287c-133.872 78.019-377.177 219.808-525.247 306.106v-299.821c0-34.309-27.812-62.122-62.117-62.122-34.297 0-62.103 27.815-62.103 62.122v372.212c-0.581 0.339-0.895 0.523-0.895 0.523s0.311 0.182 0.895 0.523v372.058c0 34.309 27.809 62.103 62.103 62.103 34.304 0 62.117-27.795 62.117-62.103v-299.662c133.553 77.836 344.571 200.825 482.895 281.437 53.855 32.571 138.079 71.646 138.079-65.991 0-176.682 0-469.007 0-622.287-1.949-78.23-59.317-63.202-95.726-45.097z" p-id="21416" fill="#ffffff"></path></svg>