<?xml version="1.0" standalone="no"?><!DOCTYPE svg PUBLIC "-//W3C//DTD SVG 1.1//EN" "http://www.w3.org/Graphics/SVG/1.1/DTD/svg11.dtd"><svg t="1589361271572" class="icon" viewBox="0 0 1024 1024" version="1.1" xmlns="http://www.w3.org/2000/svg" p-id="17978" id="mx_n_1589361271573" data-spm-anchor-id="a313x.7781069.0.i6" xmlns:xlink="http://www.w3.org/1999/xlink" width="200" height="200"><defs><style type="text/css"></style></defs><path d="M512 85.333333C276.48 85.333333 85.333333 276.48 85.333333 512s191.146667 426.666667 426.666667 426.666667 426.666667-191.146667 426.666667-426.666667S747.52 85.333333 512 85.333333z m0 785.066667c-197.546667 0-358.4-160.853333-358.4-358.4s160.853333-358.4 358.4-358.4 358.4 160.853333 358.4 358.4-160.853333 358.4-358.4 358.4z" fill="#4C4C4C" p-id="17979"></path><path d="M307.2 512m-59.733333 0a59.733333 59.733333 0 1 0 119.466666 0 59.733333 59.733333 0 1 0-119.466666 0Z" fill="#4C4C4C" p-id="17980"></path><path d="M512 512m-59.733333 0a59.733333 59.733333 0 1 0 119.466666 0 59.733333 59.733333 0 1 0-119.466666 0Z" fill="#4C4C4C" p-id="17981"></path><path d="M716.8 512m-59.733333 0a59.733333 59.733333 0 1 0 119.466666 0 59.733333 59.733333 0 1 0-119.466666 0Z" fill="#4C4C4C" p-id="17982"></path></svg>