<?xml version="1.0" standalone="no"?><!DOCTYPE svg PUBLIC "-//W3C//DTD SVG 1.1//EN" "http://www.w3.org/Graphics/SVG/1.1/DTD/svg11.dtd"><svg t="1589361044298" class="icon" viewBox="0 0 1024 1024" version="1.1" xmlns="http://www.w3.org/2000/svg" p-id="6161" xmlns:xlink="http://www.w3.org/1999/xlink" width="200" height="200"><defs><style type="text/css"></style></defs><path d="M768 161.28c-122.88-69.12-279.04-28.16-348.16 92.16l-102.4 171.52L128 547.84l199.68 112.64c-35.84 58.88-15.36 135.68 46.08 168.96 61.44 33.28 138.24 12.8 174.08-46.08l199.68 112.64 12.8-222.72 102.4-171.52C931.84 381.44 890.88 230.4 768 161.28zM399.36 785.92c-35.84-20.48-48.64-66.56-28.16-102.4l133.12 74.24c-23.04 35.84-69.12 48.64-104.96 28.16zM819.2 476.16l-102.4 171.52-10.24 166.4-486.4-273.92 143.36-92.16 102.4-171.52c56.32-94.72 181.76-128 279.04-71.68 94.72 53.76 130.56 176.64 74.24 271.36z" p-id="6162" fill="#ffffff"></path></svg>